# xmcd
#
# Track frame offsets:
# 150
# 10272
# 21163
# 33963
# 43313
# 53439
# 65884
# 77921
# 90329
# 100157
# 112118
# 123547
# 133462
# 141791
# 152008
# 163905
# 173151
# 182714
# 192749
# 204612
# 214137
# 224130
# 234507
# 248019
# 257029
# 265947
# 274004
# 284886
# 297691
#
# Disc length: 4202 seconds
#
#
# Revision: 0
# Processed by: cddbd v1.4PL0 Copyright (c) Steve Scherf et al.
# Submitted via: FreeRIP 2.35 
#
DISCID=d310681d
DTITLE=Johnny Cash - Columbia Classics #1
DYEAR=1900
DGENRE=Country
TTITLE0=Hey Porter
TTITLE1=Cry, Cry, Cry
TTITLE2=Folsom Prison Blues
TTITLE3=Luther Played the Boogie
TTITLE4=Get Rhythm
TTITLE5=I Walk the Line
TTITLE6=Home of The Blues
TTITLE7=Give My Love To Rose
TTITLE8=Rock Island Line
TTITLE9=Doin' My Time
TTITLE10=Big River
TTITLE11=Ballad of A Teenage Queen
TTITLE12=Guess Things Happen That Way
TTITLE13=The Ways Of A Woman In Love
TTITLE14=Thanks A Lot
TTITLE15=Oh, What A Dream
TTITLE16=What Do I Care
TTITLE17=All Over Again
TTITLE18=I Still Miss Someone
TTITLE19=I'd Just Be Fool Enough
TTITLE20=Walkin' The Blues
TTITLE21=Frankie's Man, Johnny
TTITLE22=Tennessee Flat-Top Box
TTITLE23=Sing It Pretty, Sue
TTITLE24=Pickin' Time
TTITLE25=Five Feet High and Rising
TTITLE26=The Old Account
TTITLE27=Peace In The Valley
TTITLE28=Were You There
EXTD=
EXTT0=
EXTT1=
EXTT2=
EXTT3=
EXTT4=
EXTT5=
EXTT6=
EXTT7=
EXTT8=
EXTT9=
EXTT10=
EXTT11=
EXTT12=
EXTT13=
EXTT14=
EXTT15=
EXTT16=
EXTT17=
EXTT18=
EXTT19=
EXTT20=
EXTT21=
EXTT22=
EXTT23=
EXTT24=
EXTT25=
EXTT26=
EXTT27=
EXTT28=
PLAYORDER=
